# xmcd
#
# Track frame offsets: 
#        150
#        12720
#        23905
#        39645
#        53572
#        66762
#        80822
#        95895
#        111247
#        130130
#        143292
#        156762
#        172952
#        187132
#        201200
#
# Disc length: 2916 seconds
#
# Revision: 2
# Processed by: cddbd v1.5.2PL0 Copyright (c) Steve Scherf et al.
# Submitted via: ExactAudioCopy v0.95b4
#
DISCID=d20b620f
DTITLE=Kristian and Jesper - Harmonika Træffere I
DYEAR=2002
DGENRE=Jazz
TTITLE0=Calle Schewens vals
TTITLE1=Trædballehus polka
TTITLE2=Forelsket i København
TTITLE3=Min älskling du är som en ros
TTITLE4=Indifference
TTITLE5=Säkkijärven polka
TTITLE6=Afton på Solvik
TTITLE7=Tico Tico
TTITLE8=Cubanola
TTITLE9=Rally polka
TTITLE10=Bågskytten
TTITLE11=El Cumbanchero
TTITLE12=King Cotton March
TTITLE13=Dalavalsen
TTITLE14=Hvorfor er lykken så lunefuld
EXTD=YEAR: 2002
EXTT0=
EXTT1=
EXTT2=
EXTT3=
EXTT4=
EXTT5=
EXTT6=
EXTT7=
EXTT8=
EXTT9=
EXTT10=
EXTT11=
EXTT12=
EXTT13=
EXTT14=
PLAYORDER=
